<?xml version="1.0" standalone="no"?>
<svg xmlns="http://www.w3.org/2000/svg" xmlns:xlink="http://www.w3.org/1999/xlink" style="isolation:isolate" viewBox="-390.116 -57.566 916.992 1876.655" width="916.992" height="1876.655">
  <path d=" M -272.287 -56.607 C -290.954 -53.941 -315.887 -43.674 -332.287 -32.074 C -336.687 -28.874 -345.754 -20.741 -352.287 -13.807 C -369.354 4.059 -379.087 21.659 -386.687 48.326 L -389.62 58.593 L -390.02 873.259 C -390.287 1453.526 -390.02 1691.126 -388.954 1699.126 C -386.287 1719.793 -376.82 1743.659 -364.287 1761.259 C -361.087 1765.659 -352.954 1774.726 -346.02 1781.259 C -328.154 1798.326 -310.554 1808.059 -283.887 1815.659 L -273.62 1818.593 L 61.046 1818.993 C 297.046 1819.259 399.046 1818.993 406.913 1817.926 C 427.58 1815.259 451.446 1805.793 469.046 1793.259 C 473.446 1790.059 482.513 1781.926 489.046 1774.993 C 506.113 1757.126 515.846 1739.526 523.446 1712.859 L 526.38 1702.593 L 526.78 887.926 C 527.046 307.659 526.78 70.059 525.713 62.059 C 523.046 41.393 513.58 17.526 501.046 -0.074 C 497.846 -4.474 489.713 -13.541 482.78 -20.074 C 464.913 -37.141 447.313 -46.874 420.646 -54.474 L 410.38 -57.407 L 73.046 -57.541 C -112.554 -57.674 -267.887 -57.274 -272.287 -56.607 L -272.287 -56.607 Z  M -105.926 -25.784 L -105.926 -25.55 C -101.442 -25.55 -97.806 -20.491 -97.806 -14.251 L -97.806 -7.472 C -97.806 19.984 -81.808 42.243 -62.075 42.243 L 205.902 42.243 C 225.635 42.243 241.632 19.984 241.632 -7.472 L 241.632 -14.251 C 241.632 -20.286 245.032 -25.215 249.312 -25.533 L 409.046 -25.407 L 418.38 -22.207 L 418.38 -22.207 C 458.113 -8.874 485.446 20.993 493.046 59.126 C 494.913 68.059 495.046 161.126 494.78 885.259 L 494.38 1701.259 L 491.18 1710.593 C 480.113 1743.393 457.98 1767.793 428.38 1779.793 C 408.78 1787.793 430.913 1787.393 63.713 1786.993 L -272.287 1786.593 L -281.62 1783.393 C -321.487 1769.926 -348.687 1740.326 -356.287 1702.059 C -358.154 1693.126 -358.287 1600.059 -358.02 875.926 L -357.62 59.926 L -354.42 50.593 C -343.354 17.659 -321.087 -6.874 -291.487 -18.607 C -276.266 -24.781 -287.132 -25.771 -105.926 -25.784 Z " fill-rule="evenodd" fill="rgb(0,0,0)"/>
</svg>